<svg width="206" height="63" viewBox="0 0 206 63" fill="none" xmlns="http://www.w3.org/2000/svg">
<path d="M2.05333 26V0.799998H16.1653V7.064H9.21733V10.16H15.0853V16.388H9.21733V19.736H16.4533V26H2.05333ZM19.983 26V0.799998H27.147V19.736H34.383V26H19.983ZM36.858 26V0.799998H44.022V26H36.858ZM51.9215 26V7.064H46.7735V0.799998H64.3055V7.064H59.0855V26H51.9215ZM66.9869 26V0.799998H81.0989V7.064H74.1509V10.16H80.0189V16.388H74.1509V19.736H81.3869V26H66.9869ZM22.0693 62L18.4693 47.528L14.8693 62H6.73333L0.217332 36.8H7.88533L11.2333 53.54L15.2653 36.8H21.6733L25.7053 53.54L29.0533 36.8H36.7213L30.1693 62H22.0693ZM39.0729 62V36.8H46.2369V46.268H54.2289V36.8H61.3929V62H54.2289V52.568H46.2369V62H39.0729ZM77.9287 62.468C69.6127 62.468 64.3207 56.744 64.3207 49.364C64.3207 42.092 69.6127 36.332 77.9287 36.332C86.2447 36.332 91.5367 42.092 91.5367 49.364C91.5367 56.744 86.2447 62.468 77.9287 62.468ZM77.9287 42.884C74.2567 42.884 71.8087 45.692 71.8087 49.364C71.8087 53.144 74.2567 55.916 77.9287 55.916C81.6007 55.916 84.0487 53.144 84.0487 49.364C84.0487 45.692 81.6007 42.884 77.9287 42.884ZM94.444 62V36.8H101.608V55.736H108.844V62H94.444ZM111.319 62V36.8H125.431V43.064H118.483V46.16H124.351V52.388H118.483V55.736H125.719V62H111.319ZM127.593 56.348L133.569 53.396C134.289 54.728 135.729 55.88 137.025 55.88C138.141 55.88 138.609 55.412 138.609 54.764C138.609 52.208 128.349 52.136 128.349 44.108C128.349 39.32 131.841 36.332 137.061 36.332C142.857 36.332 144.981 40.472 145.665 42.452L139.725 45.116C139.221 44.072 138.609 42.812 136.881 42.812C136.017 42.812 135.513 43.28 135.513 43.964C135.513 46.772 145.845 46.628 145.845 54.224C145.845 59.048 142.641 62.468 136.809 62.468C130.869 62.468 128.241 58.112 127.593 56.348ZM163.229 57.176H155.669L154.157 62H146.957L155.669 36.8H163.229L171.941 62H164.741L163.229 57.176ZM161.537 51.452L159.449 44.216L157.361 51.452H161.537ZM174.178 62V36.8H181.342V55.736H188.578V62H174.178ZM191.053 62V36.8H205.165V43.064H198.217V46.16H204.085V52.388H198.217V55.736H205.453V62H191.053Z" fill="#F49135"/>
</svg>
